<svg width="32" height="32" viewBox="0 0 32 32" fill="none" xmlns="http://www.w3.org/2000/svg">
<g id="INSTA" clip-path="url(#clip0_1476_7)">
<g id="Group">
<path id="Vector" d="M19.0625 16C19.0625 17.6914 17.6914 19.0625 16 19.0625C14.3086 19.0625 12.9375 17.6914 12.9375 16C12.9375 14.3086 14.3086 12.9375 16 12.9375C17.6914 12.9375 19.0625 14.3086 19.0625 16Z" fill="black"/>
<path id="Vector_2" d="M23.1612 10.5823C23.0139 10.1832 22.7791 9.82225 22.4739 9.52587C22.1776 9.22068 21.8166 8.98584 21.4175 8.83862C21.0937 8.71294 20.6075 8.56325 19.7117 8.5225C18.7427 8.47831 18.4522 8.46875 15.999 8.46875C13.5457 8.46875 13.2552 8.47806 12.2864 8.52225C11.3907 8.56325 10.904 8.71287 10.5806 8.83862C10.1815 8.98578 9.82046 9.22063 9.52417 9.52587C9.21899 9.82226 8.98407 10.1832 8.83667 10.5823C8.71098 10.9061 8.5613 11.3926 8.52055 12.2884C8.47636 13.2571 8.4668 13.5476 8.4668 16.001C8.4668 18.4541 8.47636 18.7446 8.52055 19.7136C8.5613 20.6094 8.71098 21.0957 8.83667 21.4194C8.98398 21.8185 9.21881 22.1795 9.52392 22.4759C9.82025 22.7811 10.1813 23.0159 10.5804 23.1631C10.9041 23.2891 11.3907 23.4388 12.2864 23.4795C13.2552 23.5237 13.5454 23.533 15.9988 23.533C18.4524 23.533 18.7429 23.5237 19.7114 23.4795C20.6072 23.4388 21.0938 23.2891 21.4175 23.1631C21.8137 23.0103 22.1736 22.7762 22.4739 22.4759C22.7742 22.1755 23.0083 21.8157 23.1612 21.4194C23.2869 21.0957 23.4365 20.6094 23.4775 19.7136C23.5217 18.7446 23.531 18.4541 23.531 16.001C23.531 13.5476 23.5217 13.2571 23.4775 12.2884C23.4368 11.3926 23.2871 10.906 23.1612 10.5823ZM15.999 20.7186C13.3934 20.7186 11.281 18.6064 11.281 16.0007C11.281 13.3951 13.3934 11.283 15.999 11.283C18.6045 11.283 20.7168 13.3951 20.7168 16.0007C20.7168 18.6064 18.6045 20.7186 15.999 20.7186ZM20.9034 12.199C20.2945 12.199 19.8009 11.7053 19.8009 11.0965C19.8009 10.4877 20.2945 9.99394 20.9034 9.99394C21.5122 9.99394 22.0059 10.4876 22.0059 11.0964C22.0056 11.7053 21.5122 12.199 20.9034 12.199Z" fill="black"/>
<path id="Vector_3" d="M16 0C7.16481 0 0 7.16481 0 16C0 24.8352 7.16481 32 16 32C24.8352 32 32 24.8352 32 16C32 7.16481 24.8352 0 16 0ZM25.1321 19.7878C25.0877 20.7659 24.9321 21.4336 24.7051 22.0181C24.469 22.6284 24.1081 23.1827 23.6454 23.6454C23.1827 24.1081 22.6284 24.469 22.0181 24.7051C21.4338 24.9321 20.7659 25.0874 19.7881 25.1321C18.8084 25.1768 18.4954 25.1875 16.0002 25.1875C13.5049 25.1875 13.1921 25.1768 12.2121 25.1321C11.2344 25.0874 10.5664 24.9321 9.98213 24.7051C9.36901 24.4744 8.81363 24.1127 8.35475 23.6453C7.88742 23.1864 7.52583 22.6311 7.29519 22.0181C7.06812 21.4338 6.91262 20.7659 6.86819 19.7881C6.823 18.8081 6.8125 18.4951 6.8125 16C6.8125 13.5049 6.823 13.1919 6.86794 12.2122C6.91231 11.2341 7.06762 10.5664 7.29469 9.98194C7.5254 9.36887 7.88715 8.81355 8.35469 8.35475C8.81351 7.88726 9.36885 7.52557 9.98194 7.29494C10.5664 7.06787 11.2341 6.91262 12.2122 6.86794C13.1919 6.82325 13.5049 6.8125 16 6.8125C18.4951 6.8125 18.8081 6.82325 19.7878 6.86812C20.7659 6.91262 21.4336 7.06787 22.0181 7.29469C22.6312 7.52545 23.1866 7.88719 23.6456 8.35469C24.1129 8.81357 24.4745 9.3689 24.7051 9.98194C24.9324 10.5664 25.0876 11.2341 25.1323 12.2122C25.177 13.1919 25.1875 13.5049 25.1875 16C25.1875 18.4951 25.177 18.8081 25.1321 19.7878Z" fill="black"/>
</g>
</g>
<defs>
<clipPath id="clip0_1476_7">
<rect width="32" height="32" fill="white"/>
</clipPath>
</defs>
</svg>
